<?xml version="1.0" encoding="UTF-8"?>
<svg version="1.1" xmlns="http://www.w3.org/2000/svg" width="1024" height="1024">
<path d="M0 0 C10.13119768 0.00449969 20.26238387 0.00366528 30.39358136 -0.00090924 C42.41225379 -0.00633412 54.43091736 -0.00821701 66.44959125 -0.00529698 C72.72100763 -0.00377387 78.99241625 -0.00342708 85.26383206 -0.00683346 C109.08776302 -0.01776742 132.91235239 0.03063335 156.7338421 0.40187725 C158.84767173 0.4334417 160.96157043 0.46075189 163.07551643 0.48320803 C179.60225434 0.66811892 195.99545628 1.80184269 211.86233136 6.81696185 C212.68016095 7.06969867 213.49799054 7.32243549 214.34060284 7.582831 C231.27983737 13.03056741 246.16031014 21.66297117 259.73733136 33.12946185 C260.60358136 33.86036029 261.46983136 34.59125873 262.36233136 35.3443056 C267.05922824 39.40271807 267.05922824 39.40271807 268.73733136 41.12946185 C268.73733136 41.78946185 268.73733136 42.44946185 268.73733136 43.12946185 C269.39733136 43.12946185 270.05733136 43.12946185 270.73733136 43.12946185 C271.94240949 44.50641498 271.94240949 44.50641498 273.26858136 46.41071185 C273.98981183 47.42584857 273.98981183 47.42584857 274.72561261 48.4614931 C275.73342511 49.9068056 276.74123761 51.3521181 277.74905011 52.7974306 C278.47028058 53.81256732 278.47028058 53.81256732 279.20608136 54.84821185 C279.64371808 55.47662982 280.0813548 56.10504779 280.53225324 56.75250873 C280.92992902 57.20690326 281.3276048 57.66129779 281.73733136 58.12946185 C282.39733136 58.12946185 283.05733136 58.12946185 283.73733136 58.12946185 C283.82627667 58.80879779 283.91522199 59.48813373 284.00686261 60.1880556 C284.91761219 63.85540551 286.63652061 66.8985514 288.42483136 70.19196185 C291.65195129 76.39656208 294.1033139 82.61917029 296.11233136 89.31696185 C296.35040509 90.09885883 296.58847882 90.8807558 296.83376691 91.68634662 C300.09724951 103.06793346 301.09047446 114.44379177 301.05300519 126.23273334 C301.04981793 128.32578056 301.07351469 130.4174444 301.09865949 132.51032123 C301.15297738 143.84702657 300.0053467 153.76833824 291.73733136 162.12946185 C285.17224267 167.3735266 278.17856398 169.71161583 269.73733136 169.12946185 C266.70878114 168.56736293 263.72246047 167.88758988 260.73733136 167.12946185 C260.73733136 166.46946185 260.73733136 165.80946185 260.73733136 165.12946185 C259.98709699 164.88325092 259.23686261 164.63703998 258.46389386 164.3833681 C255.42067867 162.98383791 254.14524359 161.6986085 252.11233136 159.06696185 C251.54256574 158.35411029 250.97280011 157.64125873 250.38576886 156.9068056 C246.210289 149.87181465 245.34275927 143.05735967 245.23733136 135.00446185 C244.65332249 117.16479134 240.68494715 101.05696603 230.83889386 85.9849306 C229.73733136 84.12946185 229.73733136 84.12946185 229.73733136 82.12946185 C229.07733136 82.12946185 228.41733136 82.12946185 227.73733136 82.12946185 C226.58108136 80.66071185 226.58108136 80.66071185 225.23733136 78.62946185 C215.08642063 64.76956451 196.45965766 55.5829869 179.79124716 52.60270777 C171.10124992 51.26797088 162.66405711 50.84341543 153.88080975 50.86876544 C152.43716063 50.86573673 150.99351312 50.86184367 149.54986838 50.85717288 C145.62374063 50.84697685 141.69770506 50.84905301 137.77157006 50.85335347 C133.52127105 50.85583611 129.27099336 50.84678758 125.02070233 50.83931598 C116.70966463 50.82660945 108.3986593 50.82477022 100.08761352 50.82711624 C93.32750618 50.8289041 86.56740862 50.82713978 79.80730245 50.8228918 C78.84273116 50.82229661 77.87815987 50.82170142 76.88435915 50.8210882 C74.92440806 50.81987636 72.96445697 50.81866223 71.00450588 50.81744582 C52.65117275 50.80658588 34.29785803 50.80872545 15.94452388 50.81483067 C-0.8172943 50.81999851 -17.57905435 50.80874513 -34.34086103 50.78973245 C-51.58425105 50.77032463 -68.82761361 50.7621032 -86.07101461 50.7658557 C-95.73889533 50.76776327 -105.40672658 50.7653236 -115.07459834 50.75114116 C-123.30501078 50.7391888 -131.53534329 50.7378655 -139.76575691 50.74993133 C-143.95828887 50.75579304 -148.15067492 50.75699513 -152.3431969 50.74492893 C-182.50558813 50.62250286 -182.50558813 50.62250286 -211.26266864 59.12946185 C-212.12118426 59.49813373 -212.97969989 59.8668056 -213.86423114 60.24664935 C-221.04154009 63.55048998 -227.0886964 68.24791945 -233.26266864 73.12946185 C-234.11344989 73.7739931 -234.96423114 74.41852435 -235.84079364 75.08258685 C-245.16713892 82.96485286 -251.93509866 94.02311725 -257.13766864 104.94196185 C-257.44849383 105.58874896 -257.75931903 106.23553607 -258.07956317 106.90192279 C-259.64210692 110.29229786 -260.26266864 112.3217211 -260.26266864 116.12946185 C-260.92266864 116.12946185 -261.58266864 116.12946185 -262.26266864 116.12946185 C-262.9488097 120.12640008 -263.61129039 124.12671766 -264.26266864 128.12946185 C-264.46891864 129.38758685 -264.67516864 130.64571185 -264.88766864 131.94196185 C-267.28573934 154.06755753 -262.47466284 178.48106929 -248.58298114 196.2818056 C-247.26266864 198.12946185 -247.26266864 198.12946185 -247.26266864 200.12946185 C-246.60266864 200.12946185 -245.94266864 200.12946185 -245.26266864 200.12946185 C-243.71188739 201.73883685 -243.71188739 201.73883685 -241.95016864 203.87946185 C-239.26033447 207.05279928 -236.52078724 209.53967527 -233.26266864 212.12946185 C-231.74132663 213.85032412 -230.28415949 215.61659891 -228.82126239 217.38727435 C-227.28280735 219.10695091 -225.69110776 220.50769733 -223.88766864 221.94196185 C-223.02141864 222.66383685 -222.15516864 223.38571185 -221.26266864 224.12946185 C-221.26266864 224.78946185 -221.26266864 225.44946185 -221.26266864 226.12946185 C-220.62329364 226.39758685 -219.98391864 226.66571185 -219.32516864 226.94196185 C-217.26266864 228.12946185 -217.26266864 228.12946185 -216.26266864 231.12946185 C-214.94891728 231.833933 -213.61254205 232.49695573 -212.26266864 233.12946185 C-210.61822894 234.54012164 -210.61822894 234.54012164 -208.99460223 236.18634662 C-208.38071643 236.80361118 -207.76683063 237.42087573 -207.13434222 238.05684528 C-206.48317432 238.72147281 -205.83200641 239.38610034 -205.16110614 240.0708681 C-204.48343188 240.75374393 -203.80575763 241.43661975 -203.10754779 242.14018878 C-200.94611572 244.31941663 -198.79149456 246.50521824 -196.63766864 248.69196185 C-194.47583918 250.88139016 -192.31257695 253.06935287 -190.14636615 255.2544466 C-188.79918234 256.61390746 -187.45468043 257.97603216 -186.11310199 259.34102497 C-185.50552051 259.95513736 -184.89793903 260.56924976 -184.27194598 261.20197162 C-183.73774036 261.74443027 -183.20353473 262.28688892 -182.65314105 262.84578571 C-181.27094429 264.24120692 -181.27094429 264.24120692 -179.26266864 265.12946185 C-179.26266864 265.78946185 -179.26266864 266.44946185 -179.26266864 267.12946185 C-178.6671973 267.39961612 -178.07172595 267.66977039 -177.45821002 267.94811115 C-175.27645889 269.12204176 -173.86934891 270.28058876 -172.13400653 272.03107318 C-171.54982455 272.61540622 -170.96564258 273.19973926 -170.36375812 273.80177936 C-169.74387515 274.4319849 -169.12399219 275.06219043 -168.48532489 275.7114931 C-167.8369617 276.36268619 -167.18859851 277.01387927 -166.52058795 277.68480548 C-164.45069868 279.76586913 -162.38786026 281.85376629 -160.32516864 283.94196185 C-158.94086583 285.3363017 -157.55610507 286.73018705 -156.17087176 288.12360248 C-153.61796778 290.69281405 -151.06776039 293.26463739 -148.52072528 295.83966693 C-147.96531055 296.40021778 -147.40989581 296.96076862 -146.83765033 297.53830585 C-145.38106463 299.00984999 -143.92803086 300.48490768 -142.47531512 301.9602724 C-140.33912888 304.15905794 -140.33912888 304.15905794 -137.95016864 305.81696185 C-137.39329364 306.25008685 -136.83641864 306.68321185 -136.26266864 307.12946185 C-136.26266864 307.78946185 -136.26266864 308.44946185 -136.26266864 309.12946185 C-135.60266864 309.12946185 -134.94266864 309.12946185 -134.26266864 309.12946185 C-132.53322962 310.75515444 -130.90062767 312.41442812 -129.26266864 314.12946185 C-128.01556896 315.38682265 -126.76575086 316.64149043 -125.51388934 317.89411029 C-124.81999606 318.59123126 -124.12610278 319.28835224 -123.41118243 320.00659809 C-120.28982528 323.14130472 -117.16584678 326.27339331 -114.04172137 329.40534076 C-112.39109462 331.06103229 -110.74136127 332.71761496 -109.09250262 334.37506732 C-106.71014977 336.76949411 -104.32463099 339.1607259 -101.93844989 341.55133685 C-101.19887546 342.29607257 -100.45930102 343.04080829 -99.69731525 343.80811176 C-99.01287845 344.49262409 -98.32844165 345.17713642 -97.62326434 345.88239154 C-97.02101535 346.48686115 -96.41876636 347.09133075 -95.79826739 347.71411762 C-94.29994893 349.22637903 -94.29994893 349.22637903 -92.26266864 350.12946185 C-92.26266864 350.78946185 -92.26266864 351.44946185 -92.26266864 352.12946185 C-91.39316325 352.51050067 -91.39316325 352.51050067 -90.5060921 352.89923725 C-88.01140184 354.26724886 -86.36691184 355.79135136 -84.36789325 357.8130556 C-83.61708987 358.56723773 -82.8662865 359.32141986 -82.09273151 360.098456 C-81.2915842 360.91306293 -80.49043689 361.72766986 -79.66501239 362.56696185 C-78.83433749 363.40283832 -78.0036626 364.23871478 -77.14781573 365.09992084 C-74.49381503 367.77173802 -71.84658928 370.45013808 -69.20016864 373.12946185 C-66.54932575 375.80791519 -63.89704648 378.48490493 -61.24180987 381.15900287 C-59.58965941 382.82341584 -57.94018938 384.49049461 -56.29365924 386.16046771 C-55.54600803 386.91464984 -54.79835681 387.66883197 -54.0280495 388.4458681 C-53.37171023 389.11046039 -52.71537097 389.77505268 -52.03914264 390.45978412 C-50.16287755 392.31562421 -50.16287755 392.31562421 -47.26266864 394.12946185 C-47.26266864 394.78946185 -47.26266864 395.44946185 -47.26266864 396.12946185 C-46.60266864 396.12946185 -45.94266864 396.12946185 -45.26266864 396.12946185 C-45.26266864 396.78946185 -45.26266864 397.44946185 -45.26266864 398.12946185 C-44.60266864 398.12946185 -43.94266864 398.12946185 -43.26266864 398.12946185 C-43.26266864 398.78946185 -43.26266864 399.44946185 -43.26266864 400.12946185 C-42.73415301 400.33490619 -42.20563739 400.54035053 -41.66110614 400.75202045 C-38.25159756 402.71012788 -35.65315332 405.41366506 -32.88766864 408.16852435 C-32.28132587 408.76821033 -31.67498309 409.3678963 -31.0502663 409.98575458 C-29.77012761 411.25578149 -28.49267876 412.52852463 -27.21774676 413.80377826 C-25.27987679 415.73729238 -23.32661791 417.65426109 -21.37204364 419.5708681 C-20.12627097 420.81076865 -18.8814483 422.05162457 -17.63766864 423.29352435 C-17.05839618 423.85842578 -16.47912372 424.42332721 -15.88229755 425.00534686 C-10.62258255 430.32418914 -6.72306224 436.61760461 -5.95016864 444.19196185 C-6.55383994 451.79822027 -8.9828451 457.37115082 -14.57516864 462.62946185 C-20.18803546 467.17103109 -25.67126557 468.68437886 -32.82516864 468.41852435 C-43.21300382 467.18663364 -49.35312254 461.89776496 -56.51266864 454.80914935 C-59.16058408 452.0650608 -59.16058408 452.0650608 -62.26266864 450.12946185 C-63.61767256 448.53733224 -64.97130411 446.94401066 -66.31735614 445.3443056 C-68.75819993 442.56527262 -71.30046652 439.89620824 -73.88766864 437.25446185 C-74.80805926 436.30828998 -75.72844989 435.3621181 -76.67673114 434.38727435 C-80.57774245 430.98125542 -83.72618032 431.00442743 -88.79288104 431.00920734 C-89.91746219 431.00783267 -91.04204333 431.00645801 -92.2007027 431.00504169 C-93.42996982 431.00863696 -94.65923694 431.01223224 -95.92575458 431.01593646 C-97.22356357 431.01579044 -98.52137256 431.01564441 -99.85850909 431.01549396 C-103.41395782 431.01520708 -106.9693728 431.02108619 -110.52481368 431.02806792 C-114.2417312 431.0343196 -117.9586495 431.03490669 -121.67557147 431.03609332 C-128.71259842 431.03920128 -135.74960984 431.04740747 -142.78662995 431.05744281 C-150.79866002 431.06862056 -158.81069083 431.07411859 -166.82272676 431.07913825 C-183.30271648 431.08959051 -199.78269058 431.10717961 -216.26266864 431.12946185 C-216.58590106 431.74071918 -216.90913348 432.3519765 -217.24216083 432.98175678 C-217.67689716 433.78717914 -218.11163348 434.5926015 -218.55954364 435.4224306 C-218.98590106 436.21931293 -219.41225848 437.01619525 -219.85153583 437.83722553 C-223.70638991 444.09902916 -230.23563013 448.23715799 -237.26266864 450.12946185 C-245.57153353 451.15112906 -252.95103679 450.34665775 -260.26266864 446.12946185 C-263.13766864 443.69196185 -263.13766864 443.69196185 -265.26266864 441.12946185 C-265.96391864 440.34571185 -266.66516864 439.56196185 -267.38766864 438.75446185 C-272.55694378 431.51747665 -273.90701797 424.23891646 -272.57516864 415.62946185 C-270.46522742 405.70999793 -266.73943798 400.7458802 -258.26266864 395.12946185 C-252.21436816 391.26884453 -245.14430338 390.27219199 -238.13766864 391.81696185 C-236.83479375 392.21985891 -235.54233233 392.65800681 -234.26266864 393.12946185 C-233.60524676 393.36407123 -232.94782489 393.5986806 -232.27048114 393.84039935 C-226.26125693 396.38905865 -221.9554516 400.79653326 -218.26266864 406.12946185 C-218.26266864 407.11946185 -218.26266864 408.10946185 -218.26266864 409.12946185 C-216.97795169 408.96647601 -215.69323474 408.80349018 -214.36958697 408.63556537 C-209.4136738 408.08779727 -204.5336349 408.0016271 -199.55197528 408.0318056 C-198.62728442 408.03326587 -197.70259357 408.03472614 -196.74988177 408.03623065 C-194.75945432 408.04001181 -192.76903015 408.04610168 -190.77861598 408.05429706 C-187.63107633 408.0671321 -184.48357911 408.07359357 -181.33601764 408.07843646 C-174.66571543 408.08981944 -167.99544865 408.10909203 -161.32516864 408.12946185 C-153.56987075 408.15305022 -145.8145923 408.1734183 -138.05926707 408.18540058 C-134.953706 408.19189725 -131.84820535 408.20439931 -128.74266437 408.21710834 C-126.85097688 408.22073859 -124.95928883 408.2240906 -123.06760028 408.2271181 C-122.20061008 408.23228443 -121.33361987 408.23745075 -120.44035724 408.24277362 C-116.21759537 408.36364161 -116.21759537 408.36364161 -112.26266864 407.12946185 C-112.26266864 407.78946185 -112.26266864 408.44946185 -112.26266864 409.12946185 C-109.62266864 408.79946185 -106.98266864 408.46946185 -104.26266864 408.12946185 C-104.59266864 407.79946185 -104.92266864 407.46946185 -105.26266864 407.12946185 C-105.26266864 406.46946185 -105.26266864 405.80946185 -105.26266864 405.12946185 C-106.12032321 404.76027385 -106.12032321 404.76027385 -106.99530414 404.3836275 C-109.64246867 402.91938 -111.41196156 401.213059 -113.54050067 399.06281146 C-114.37461475 398.22531864 -115.20872882 397.38782581 -116.06811908 396.52495441 C-116.95989856 395.6197153 -117.85167804 394.7144762 -118.77048114 393.7818056 C-120.17864752 392.36569344 -121.58681637 390.94958372 -122.99513438 389.53362235 C-124.96326452 387.5523728 -126.92681468 385.5666145 -128.89035419 383.58081684 C-132.33343971 380.09969625 -135.78140087 376.62341969 -139.23285297 373.15059528 C-141.06968768 371.30146406 -142.90384333 369.44966715 -144.73511127 367.59502277 C-145.56292102 366.7606821 -146.39073077 365.92634143 -147.24362567 365.06671771 C-148.33805484 363.95990901 -148.33805484 363.95990901 -149.45459369 362.83074054 C-151.16399603 361.05912125 -151.16399603 361.05912125 -153.26266864 360.12946185 C-153.26266864 359.46946185 -153.26266864 358.80946185 -153.26266864 358.12946185 C-153.92266864 358.12946185 -154.58266864 358.12946185 -155.26266864 358.12946185 C-155.26266864 357.46946185 -155.26266864 356.80946185 -155.26266864 356.12946185 C-155.81446796 355.90363422 -156.36626727 355.67780658 -156.93478778 355.44513568 C-159.96636948 353.73174357 -162.06041723 351.55518011 -164.50876239 349.0786806 C-165.00175326 348.58285983 -165.49474414 348.08703906 -166.00267413 347.57619342 C-167.5732826 345.99443454 -169.1368015 344.405875 -170.70016864 342.81696185 C-171.74722916 341.75985992 -172.79475077 340.7032145 -173.84274676 339.64703998 C-175.7804566 337.69305507 -177.71484927 335.73599273 -179.64719012 333.77667865 C-180.51029803 332.90309711 -181.37340594 332.02951557 -182.26266864 331.12946185 C-183.13673358 330.23332172 -184.01079852 329.33718158 -184.91135028 328.41388568 C-187.23905446 326.0137983 -187.23905446 326.0137983 -190.26266864 324.12946185 C-190.26266864 323.46946185 -190.26266864 322.80946185 -190.26266864 322.12946185 C-191.25266864 321.79946185 -192.24266864 321.46946185 -193.26266864 321.12946185 C-193.26266864 320.46946185 -193.26266864 319.80946185 -193.26266864 319.12946185 C-194.25266864 318.79946185 -195.24266864 318.46946185 -196.26266864 318.12946185 C-196.26266864 317.46946185 -196.26266864 316.80946185 -196.26266864 316.12946185 C-196.92266864 316.12946185 -197.58266864 316.12946185 -198.26266864 316.12946185 C-198.26266864 315.46946185 -198.26266864 314.80946185 -198.26266864 314.12946185 C-198.82349139 313.89461078 -199.38431415 313.65975971 -199.96213153 313.41779193 C-202.82105066 311.81676081 -204.76852552 309.84808024 -207.07126239 307.5161806 C-207.98327411 306.59772357 -208.89528583 305.67926654 -209.83493426 304.73297748 C-210.79014248 303.76110011 -211.74521957 302.78909385 -212.70016864 301.81696185 C-213.65087386 300.8562134 -214.60204149 299.89592228 -215.55368426 298.93610248 C-217.3150155 297.15736924 -219.07428145 295.37658677 -220.83078387 293.5930849 C-222.03456683 292.37359149 -222.03456683 292.37359149 -223.26266864 291.12946185 C-224.07582538 290.30454242 -224.88898212 289.47962299 -225.72677997 288.629706 C-228.34709931 286.04621794 -231.04508848 283.57737326 -233.77829364 281.11383685 C-240.40983343 275.08467118 -246.7170376 268.75563401 -253.01266864 262.37946185 C-262.04582963 253.21036515 -262.04582963 253.21036515 -271.5815163 244.57037982 C-297.73781038 222.15178446 -313.59766138 190.54138988 -316.73532489 156.3443056 C-319.72964686 117.03652895 -307.46504311 80.28367413 -281.94626239 50.41852435 C-279.75972705 47.94678875 -277.52405705 45.53269363 -275.26266864 43.12946185 C-274.30747333 42.06018451 -274.30747333 42.06018451 -273.33298114 40.9693056 C-251.4410715 17.5015192 -217.08710936 2.2697395 -185.11877444 1.00509128 C-181.44198987 0.9195216 -177.76584971 0.86329284 -174.08835223 0.81745014 C-172.64877041 0.79694965 -171.20919147 0.7762453 -169.7696152 0.75535831 C-165.78975914 0.69951642 -161.80984591 0.65083384 -157.82986882 0.60449609 C-155.25327125 0.57439071 -152.67669268 0.54292429 -150.10011294 0.51133212 C-100.0690823 -0.09186931 -50.03382417 -0.02265815 0 0 Z M-253.63766864 412.25446185 C-255.6649215 415.84113999 -256.46404935 419.04762972 -256.26266864 423.12946185 C-255.14717613 426.71077991 -254.08388386 429.2170005 -251.57516864 432.00446185 C-248.2168247 433.6382508 -244.96483381 434.25072738 -241.26266864 434.12946185 C-237.11743288 432.64343394 -234.34032649 431.06607673 -232.26266864 427.12946185 C-230.77699917 421.50514173 -231.40554329 418.17704997 -234.26266864 413.12946185 C-240.14843631 407.24369419 -247.14596712 406.44609734 -253.63766864 412.25446185 Z " fill="#0B95E7" transform="translate(507.26266863942146,204.87053814530373)"/>
<path d="M0 0 C1.76953125 1.5546875 1.76953125 1.5546875 3.375 3.1875 C3.93574219 3.74695313 4.49648438 4.30640625 5.07421875 4.8828125 C11.17349378 11.4694388 13.74232934 18.95256908 13.58984375 27.94921875 C12.80131477 36.16425705 9.56485758 44.14433328 3.58984375 49.91015625 C-0.59512856 53.29640621 -4.65153001 55.15857836 -9.83984375 56.546875 C-11.83440904 57.03064785 -11.83440904 57.03064785 -12.625 59.1875 C-14.935 58.8575 -17.245 58.5275 -19.625 58.1875 C-19.955 58.8475 -20.285 59.5075 -20.625 60.1875 C-20.625 59.5275 -20.625 58.8675 -20.625 58.1875 C-21.924375 58.125625 -23.22375 58.06375 -24.5625 58 C-33.43818079 56.9566206 -39.07294776 52.24647173 -44.8984375 45.76171875 C-47.16283045 42.38562157 -48.30488947 39.03039845 -49.625 35.1875 C-76.94876232 33.88702726 -104.27785504 34.08366439 -131.625 34.1875 C-131.295 35.1775 -130.965 36.1675 -130.625 37.1875 C-129.965 37.1875 -129.305 37.1875 -128.625 37.1875 C-126.5 39.0625 -126.5 39.0625 -124.625 41.1875 C-124.625 41.8475 -124.625 42.5075 -124.625 43.1875 C-123.73042587 43.59360756 -123.73042587 43.59360756 -122.81777954 44.00791931 C-120.64833374 45.17494788 -119.25993509 46.31575224 -117.54052734 48.06079102 C-116.67976089 48.9266256 -116.67976089 48.9266256 -115.80160522 49.80995178 C-115.19418488 50.43083176 -114.58676453 51.05171173 -113.9609375 51.69140625 C-113.32765533 52.32988998 -112.69437317 52.96837372 -112.04190063 53.62620544 C-110.02312011 55.66277375 -108.01116271 57.70591075 -106 59.75 C-103.98083275 61.79677118 -101.96023099 63.84207266 -99.93667603 65.88450623 C-98.67851851 67.15493566 -97.42304361 68.42802842 -96.17050171 69.70399475 C-93.19343505 72.83079284 -93.19343505 72.83079284 -89.625 75.1875 C-89.625 75.8475 -89.625 76.5075 -89.625 77.1875 C-89.02952866 77.45765427 -88.43405731 77.72780853 -87.82054138 78.00614929 C-85.63879025 79.18007991 -84.23168028 80.33862691 -82.49633789 82.08911133 C-81.62006493 82.96561089 -81.62006493 82.96561089 -80.72608948 83.8598175 C-80.10620651 84.49002304 -79.48632355 85.12022858 -78.84765625 85.76953125 C-78.19929306 86.42072433 -77.55092987 87.07191742 -76.88291931 87.74284363 C-74.81303004 89.82390727 -72.75019162 91.91180443 -70.6875 94 C-69.3031972 95.39433985 -67.91843643 96.7882252 -66.53320312 98.18164062 C-63.98029914 100.75085219 -61.43009175 103.32267553 -58.88305664 105.89770508 C-58.32462067 106.46143829 -57.76618469 107.02517151 -57.19082642 107.60598755 C-55.78706232 109.02381418 -54.38545502 110.44377546 -52.98413086 111.86401367 C-50.70739412 114.10635079 -48.36699506 116.23257667 -45.96875 118.34375 C-40.47736058 123.25666961 -35.29490037 128.44020591 -30.125 133.6875 C-28.36688474 135.47102155 -26.60658296 137.25239128 -24.84375 139.03125 C-24.07998047 139.80662109 -23.31621094 140.58199219 -22.52929688 141.38085938 C-20.74593822 143.24834823 -20.74593822 143.24834823 -18.625 144.1875 C-18.625 144.8475 -18.625 145.5075 -18.625 146.1875 C-18.08617187 146.39761719 -17.54734375 146.60773438 -16.9921875 146.82421875 C-13.7312577 148.70221297 -11.33379629 151.30881671 -8.75 154 C-5.78921033 157.06301642 -2.85540015 160.0618076 0.4453125 162.76171875 C3.27719817 165.10652009 5.79237845 167.57255469 8.375 170.1875 C9.3329768 171.1514775 10.29132318 172.11508781 11.25 173.07836914 C11.75402344 173.58562027 12.25804687 174.0928714 12.77734375 174.61549377 C15.04500584 176.8966487 17.31542968 179.17504707 19.5859375 181.45336914 C20.77954134 182.65202234 21.97224899 183.85156862 23.1640625 185.05200195 C24.898659 186.79877693 26.63650907 188.54225824 28.375 190.28515625 C28.90222656 190.8175441 29.42945313 191.34993195 29.97265625 191.89845276 C32.30900523 194.23515185 34.64277811 196.39649699 37.25 198.43139648 C37.95125 199.01091064 38.6525 199.5904248 39.375 200.1875 C39.375 200.8475 39.375 201.5075 39.375 202.1875 C39.9515332 202.43733643 40.52806641 202.68717285 41.12207031 202.94458008 C43.68963351 204.36108032 45.37489768 205.97671967 47.421875 208.07421875 C48.5665625 209.2353418 48.5665625 209.2353418 49.734375 210.41992188 C50.52328125 211.23009766 51.3121875 212.04027344 52.125 212.875 C57.07137603 217.93266949 62.03650778 222.83966755 67.40576172 227.44750977 C70.94722113 230.57669166 74.24282236 233.95152493 77.5625 237.3125 C78.24763672 238.00214844 78.93277344 238.69179688 79.63867188 239.40234375 C80.96278822 240.735381 82.2858369 242.06947987 83.60766602 243.40478516 C85.10038391 244.91049396 86.60018565 246.40917509 88.1015625 247.90625 C104.63819832 264.49971275 116.66559096 284.38032141 122.375 307.1875 C122.56046387 307.91106689 122.74592773 308.63463379 122.93701172 309.38012695 C129.58756399 338.31685192 122.6512015 369.43707635 107.26953125 394.3671875 C87.17337995 424.28351995 57.69181931 444.20909853 22.25298029 451.64893609 C13.64254308 453.27459147 4.92207648 453.49523263 -3.81517029 453.74873352 C-4.50228875 453.7693737 -5.18940721 453.79001388 -5.89734744 453.81127951 C-23.12425911 454.32018385 -40.350691 454.33771408 -57.58372223 454.33288372 C-62.24266156 454.3326755 -66.90159514 454.33823693 -71.56053162 454.34294128 C-80.63444422 454.35115357 -89.70835031 454.35399161 -98.78226633 454.35455366 C-106.15980667 454.35503247 -113.5373449 454.35710513 -120.91488457 454.36025429 C-141.89945084 454.36902782 -162.88401205 454.37367778 -183.86858017 454.37292381 C-184.99355272 454.37288386 -186.11852527 454.3728439 -187.27758789 454.37280273 C-188.40395326 454.37276185 -189.53031862 454.37272097 -190.69081628 454.37267885 C-208.99832664 454.37227124 -227.30581657 454.38187847 -245.61332101 454.3959411 C-264.47770497 454.41031597 -283.34207895 454.41721097 -302.20646852 454.41634732 C-312.77162224 454.41601619 -323.3367544 454.41872769 -333.90190315 454.42952538 C-342.87997885 454.43864405 -351.85802315 454.44079364 -360.83610148 454.43401595 C-365.4092309 454.43076035 -369.98230011 454.43065979 -374.55542374 454.4393692 C-378.74987728 454.44727535 -382.94422326 454.44576126 -387.13867431 454.43708507 C-388.64672352 454.43555934 -390.15478093 454.43733079 -391.66282047 454.44294515 C-405.46586302 454.49088693 -418.83186865 453.80673778 -431.625 448.1875 C-433.05392578 447.60742188 -433.05392578 447.60742188 -434.51171875 447.015625 C-445.68577077 442.04937966 -455.95098222 433.74292565 -460.890625 422.34375 C-463.6216118 414.32510792 -463.3698119 406.82371785 -459.625 399.1875 C-455.6085636 393.0376719 -450.81104152 388.96492757 -443.625 387.1875 C-433.21533014 385.54386792 -427.1769855 388.58655175 -418.625 394.1875 C-406.33936531 400.77051924 -393.92300561 400.45026967 -380.35546875 400.34765625 C-378.46951102 400.34136811 -376.58354951 400.33613396 -374.69758606 400.33189392 C-369.74250143 400.31864481 -364.78754205 400.29426863 -359.83251953 400.26654053 C-351.94433981 400.22333728 -344.05613415 400.19330331 -336.16787148 400.1704998 C-333.44927891 400.16050127 -330.73080298 400.14342168 -328.01225281 400.12550354 C-315.85454692 400.06748251 -303.76292026 400.50353109 -291.625 401.1875 C-291.295 400.5275 -290.965 399.8675 -290.625 399.1875 C-290.625 399.8475 -290.625 400.5075 -290.625 401.1875 C-289.62654053 401.14107864 -289.62654053 401.14107864 -288.60791016 401.09371948 C-269.44330876 400.25155302 -250.30602097 400.12433714 -231.125 400.1953125 C-228.6370443 400.20327558 -226.14908857 400.21123043 -223.66113281 400.21917725 C-213.36744685 400.25463884 -203.07383566 400.29676736 -192.78027344 400.35888672 C-186.40210206 400.39674425 -180.02401909 400.4196076 -173.64575195 400.43319321 C-171.24745165 400.44116569 -168.84916226 400.45465534 -166.45092773 400.47412491 C-142.31272105 400.66717147 -122.43645052 398.9210196 -103.875 381.9375 C-93.14971293 370.51943123 -87.625 353.685318 -87.625 338.1875 C-87.625 337.1975 -87.625 336.2075 -87.625 335.1875 C-89.19852945 333.96233673 -89.19852945 333.96233673 -91.25 332.9375 C-98.09089012 328.86439051 -102.21504094 323.55238699 -104.9296875 316.05859375 C-107.17409337 306.79096278 -106.45254854 297.45918018 -101.625 289.1875 C-96.66586955 281.47943652 -89.22255666 277.24145632 -80.5546875 274.54296875 C-70.64106317 272.7167748 -61.73999135 275.2149561 -53.47265625 280.75390625 C-47.27810336 285.56025067 -43.5143143 291.57717218 -41.625 299.1875 C-40.59290183 307.66544922 -41.36130351 315.68339418 -45.625 323.1875 C-49.09005687 327.52703992 -52.44389311 331.48623947 -57.8203125 333.21484375 C-60.79047579 334.86669655 -60.79047579 334.86669655 -61.28662109 337.47314453 C-61.6886194 340.56539833 -61.92634806 343.63809103 -62.125 346.75 C-64.14608369 368.56613694 -71.45079031 385.40473288 -85.625 402.1875 C-86.15480469 402.93773437 -86.68460938 403.68796875 -87.23046875 404.4609375 C-87.69066406 405.03070312 -88.15085937 405.60046875 -88.625 406.1875 C-89.285 406.1875 -89.945 406.1875 -90.625 406.1875 C-90.625 406.8475 -90.625 407.5075 -90.625 408.1875 C-92.09375 409.66796875 -92.09375 409.66796875 -94.125 411.375 C-94.846875 411.99246094 -95.56875 412.60992188 -96.3125 413.24609375 C-97.84904916 414.53606829 -99.39070633 415.81998377 -100.9375 417.09765625 C-101.659375 417.70480469 -102.38125 418.31195312 -103.125 418.9375 C-103.7953125 419.48921875 -104.465625 420.0409375 -105.15625 420.609375 C-106.96564232 422.19420036 -106.96564232 422.19420036 -106.625 425.1875 C-95.5752521 425.25746021 -84.52555816 425.31054249 -73.47563267 425.34293652 C-68.34296832 425.35849543 -63.21045711 425.37955179 -58.07788086 425.41381836 C-53.11115482 425.44676463 -48.14457473 425.46442619 -43.17774773 425.47213173 C-41.29662725 425.4776127 -39.41551342 425.48831249 -37.53445625 425.50469017 C-14.32136764 425.6984907 5.8937286 421.36160586 26.375 410.1875 C27.34308594 409.66542969 28.31117188 409.14335938 29.30859375 408.60546875 C51.87904725 395.35832294 67.51753504 372.65794891 74.25 347.6875 C80.09909065 324.24603482 79.38001743 301.33625624 71.14453125 278.48046875 C70.375 276.1875 70.375 276.1875 70.375 274.1875 C69.715 273.8575 69.055 273.5275 68.375 273.1875 C67.6978348 271.19103018 67.03319815 269.19030295 66.375 267.1875 C65.26117824 265.07544177 64.09285056 262.99133273 62.875 260.9375 C62.2665625 259.90109375 61.658125 258.8646875 61.03125 257.796875 C59.48661166 255.15373442 59.48661166 255.15373442 57.375 253.1875 C56.46619599 251.98889161 55.57207773 250.77909732 54.6875 249.5625 C49.09928391 241.92045473 49.09928391 241.92045473 42.1640625 235.58203125 C41.57367187 235.12183594 40.98328125 234.66164063 40.375 234.1875 C40.375 233.5275 40.375 232.8675 40.375 232.1875 C39.7871019 231.92491898 39.1992038 231.66233795 38.5934906 231.39179993 C36.26346206 230.12695201 34.74211487 228.79592984 32.87915039 226.91870117 C31.88275291 225.9220771 31.88275291 225.9220771 30.8662262 224.90531921 C30.15884811 224.18761856 29.45147003 223.46991791 28.72265625 222.73046875 C27.98550888 221.99049149 27.24836151 221.25051422 26.48887634 220.4881134 C24.13367849 218.12173199 21.78551683 215.74850478 19.4375 213.375 C17.86048784 211.78795245 16.2830189 210.20135864 14.70507812 208.61523438 C11.80062077 205.69445693 8.89882133 202.77109519 6.00024414 199.84448242 C5.05841782 198.89471779 5.05841782 198.89471779 4.0975647 197.92576599 C2.61519322 196.42988259 1.13535348 194.93149108 -0.34399414 193.43261719 C-2.4708906 191.33918469 -4.65591875 189.36914099 -6.90625 187.41015625 C-11.61276957 183.20030019 -16.08461847 178.79115413 -20.53125 174.30859375 C-21.22814941 173.60618561 -21.92504883 172.90377747 -22.64306641 172.18008423 C-25.54981993 169.24557582 -28.45275246 166.307346 -31.3515625 163.36499023 C-33.49049723 161.19605941 -35.63544439 159.03322395 -37.78125 156.87109375 C-38.43951782 156.1993663 -39.09778564 155.52763885 -39.77600098 154.83555603 C-40.38423706 154.22394119 -40.99247314 153.61232635 -41.61914062 152.98217773 C-42.15301392 152.44084702 -42.68688721 151.8995163 -43.23693848 151.34178162 C-44.58041278 149.9743708 -44.58041278 149.9743708 -46.625 150.1875 C-46.955 149.1975 -47.285 148.2075 -47.625 147.1875 C-48.285 146.8575 -48.945 146.5275 -49.625 146.1875 C-49.625 145.5275 -49.625 144.8675 -49.625 144.1875 C-50.4437561 143.85987671 -50.4437561 143.85987671 -51.27905273 143.52563477 C-54.39581198 141.74782673 -56.68726725 139.33315971 -59.16015625 136.77734375 C-59.68008652 136.24984024 -60.20001678 135.72233673 -60.73570251 135.17884827 C-62.39121226 133.49897291 -64.04009716 131.812824 -65.6875 130.125 C-67.86014512 127.89921696 -70.03927305 125.68008848 -72.22265625 123.46484375 C-72.71959488 122.95130844 -73.21653351 122.43777313 -73.72853088 121.90867615 C-76.02640754 119.57831752 -77.46959216 118.23930261 -80.625 117.1875 C-81.285 116.1975 -81.945 115.2075 -82.625 114.1875 C-84.27063221 112.49445485 -85.93829598 110.83879291 -87.625 109.1875 C-88.93739471 107.87301847 -90.24802214 106.5567713 -91.55737305 105.23925781 C-95.60267538 101.17616509 -99.65102256 97.1161207 -103.70043945 93.05712891 C-105.44807187 91.30443279 -107.19481077 89.5508453 -108.94067383 87.79638672 C-111.46202442 85.26296319 -113.98654077 82.73273287 -116.51171875 80.203125 C-117.68670174 79.02040009 -117.68670174 79.02040009 -118.88542175 77.81378174 C-119.60990005 77.08922791 -120.33437836 76.36467407 -121.08081055 75.61816406 C-121.71858932 74.97816467 -122.3563681 74.33816528 -123.01347351 73.67877197 C-124.57122187 72.09803482 -124.57122187 72.09803482 -126.625 71.1875 C-126.625 70.5275 -126.625 69.8675 -126.625 69.1875 C-127.49125 68.81625 -127.49125 68.81625 -128.375 68.4375 C-130.95439979 67.00450012 -132.68621592 65.40325324 -134.625 63.1875 C-134.625 62.5275 -134.625 61.8675 -134.625 61.1875 C-135.18243896 60.96908447 -135.73987793 60.75066895 -136.31420898 60.52563477 C-139.38931664 58.74489889 -141.26069186 56.45267634 -143.59765625 53.77734375 C-144.58913668 52.69222482 -145.58337671 51.6096222 -146.58007812 50.52929688 C-148.13289235 48.84206938 -149.66665537 47.14936201 -151.1574707 45.40698242 C-151.88099731 44.56647339 -151.88099731 44.56647339 -152.61914062 43.70898438 C-153.03772339 43.21209106 -153.45630615 42.71519775 -153.88757324 42.20324707 C-159.46403309 36.73431486 -163.37423356 34.39641499 -171.27685547 34.36816406 C-172.5145476 34.3340519 -172.5145476 34.3340519 -173.77724361 34.2992506 C-176.39345653 34.23506893 -179.00811532 34.20844007 -181.625 34.1875 C-183.28489935 34.16077424 -184.94478656 34.13328269 -186.60466003 34.10499573 C-191.78991246 34.03143388 -196.97445422 34.02164407 -202.16015625 34.01953125 C-204.05960615 34.01630555 -205.95905582 34.01294058 -207.85850525 34.00944519 C-211.79882382 34.00352184 -215.73912066 34.00159867 -219.67944336 34.00219727 C-224.70566729 34.00229962 -229.7317523 33.98854185 -234.75794315 33.97142506 C-238.66404352 33.96027616 -242.57011026 33.95827879 -246.4762249 33.95880699 C-248.3296196 33.95763532 -250.1830154 33.95325978 -252.03639412 33.94547462 C-268.32463009 33.22645797 -268.32463009 33.22645797 -283.125 38.8125 C-286.47471098 41.1875 -286.47471098 41.1875 -288.625 41.1875 C-288.893125 41.88875 -289.16125 42.59 -289.4375 43.3125 C-290.625 46.1875 -290.625 46.1875 -292.1875 49.0625 C-295.32754249 55.88867932 -294.84873487 62.17418234 -292.625 69.1875 C-290.21210234 75.15267589 -287.0195654 79.35017165 -282.375 83.75 C-281.84003906 84.27529297 -281.30507813 84.80058594 -280.75390625 85.34179688 C-277.89767091 88.12001154 -274.96158508 90.77013264 -271.93359375 93.359375 C-266.31601123 98.23410881 -261.15822906 103.58438389 -255.9375 108.875 C-253.91573623 110.92354633 -251.89054143 112.96861319 -249.86328125 115.01171875 C-248.533573 116.35882935 -248.533573 116.35882935 -247.17700195 117.7331543 C-244.6606158 120.23904247 -244.6606158 120.23904247 -241.79760742 122.38598633 C-241.08064697 122.98048584 -240.36368652 123.57498535 -239.625 124.1875 C-239.625 124.8475 -239.625 125.5075 -239.625 126.1875 C-239.08004883 126.40575439 -238.53509766 126.62400879 -237.97363281 126.84887695 C-234.84691413 128.63097659 -232.53600199 131.0494838 -230.046875 133.60546875 C-229.51660706 134.14093826 -228.98633911 134.67640778 -228.44000244 135.22810364 C-226.74682944 136.93903752 -225.06047792 138.65648768 -223.375 140.375 C-221.1649078 142.6219164 -218.95160767 144.86559794 -216.734375 147.10546875 C-215.92804375 147.92011597 -215.92804375 147.92011597 -215.10542297 148.7512207 C-211.72617207 152.14309523 -208.24357282 155.34189905 -204.59619141 158.44555664 C-200.3510458 162.19699507 -196.42236779 166.28900187 -192.4375 170.3125 C-191.56158203 171.19292969 -190.68566406 172.07335937 -189.78320312 172.98046875 C-186.46740922 176.31385974 -183.15516315 179.65061647 -179.8515625 182.99609375 C-177.36022588 185.44809348 -174.7855209 187.78642086 -172.1875 190.125 C-168.65309353 193.31285212 -165.22173855 196.56417143 -161.90625 199.98046875 C-161.2867749 200.61670166 -160.6672998 201.25293457 -160.02905273 201.90844727 C-158.82166101 203.15681635 -157.62288418 204.41358829 -156.43383789 205.67944336 C-155.60227173 206.53807983 -155.60227173 206.53807983 -154.75390625 207.4140625 C-154.02796265 208.18097412 -154.02796265 208.18097412 -153.28735352 208.96337891 C-149.40742366 211.82047515 -144.25303664 211.31630443 -139.63500977 211.3293457 C-138.95141388 211.33282013 -138.26781799 211.33629456 -137.56350708 211.33987427 C-136.08595649 211.34719898 -134.60839512 211.35256177 -133.13083076 211.35616493 C-130.78894892 211.36336567 -128.44727233 211.37905765 -126.10545349 211.39750671 C-119.44948079 211.44981585 -112.79362518 211.49795725 -106.13745117 211.51342773 C-102.05955453 211.52352494 -97.98218244 211.55288656 -93.90449333 211.59474754 C-92.35485747 211.6070313 -90.80514749 211.61218359 -89.25546455 211.60994911 C-87.08453708 211.60758836 -84.91510904 211.62981552 -82.74438477 211.6574707 C-81.51148209 211.66333694 -80.27857941 211.66920319 -79.00831604 211.67524719 C-74.97309361 212.28620224 -72.79626203 213.6652549 -69.625 216.1875 C-67.15353581 219.94842376 -67.50597044 223.57472527 -67.75 227.90625 C-69.07645433 231.36450594 -71.50656461 233.35016295 -74.625 235.1875 C-77.63655594 235.66856418 -80.07332802 235.86416226 -83.07373047 235.81860352 C-84.3139798 235.82933647 -84.3139798 235.82933647 -85.57928467 235.84028625 C-88.30082189 235.85713475 -91.02070245 235.83779062 -93.7421875 235.81640625 C-95.64258968 235.81723546 -97.54299178 235.81969683 -99.44338989 235.82371521 C-103.42292924 235.82657079 -107.40190505 235.81189829 -111.38134766 235.78442383 C-116.46781898 235.75038804 -121.55327984 235.75634614 -126.63979912 235.7750864 C-130.56393768 235.78568673 -134.48784363 235.77669029 -138.4119606 235.76170158 C-140.28653395 235.75653842 -142.16113178 235.7569788 -144.03570175 235.76324654 C-146.66348685 235.76873365 -149.28985688 235.74821145 -151.91748047 235.72094727 C-152.68345551 235.72747314 -153.44943054 235.73399902 -154.23861694 235.74072266 C-160.95099398 235.62306703 -165.99879186 233.35859676 -171.15380859 229.09692383 C-172.2030249 228.0067395 -172.2030249 228.0067395 -173.2734375 226.89453125 C-174.05074219 226.09982422 -174.82804687 225.30511719 -175.62890625 224.48632812 C-176.80259766 223.2555957 -176.80259766 223.2555957 -178 222 C-179.58914181 220.35873433 -181.18019079 218.71931242 -182.7734375 217.08203125 C-183.46614746 216.35862549 -184.15885742 215.63521973 -184.87255859 214.88989258 C-186.52810296 213.10992651 -186.52810296 213.10992651 -188.625 212.1875 C-188.625 211.5275 -188.625 210.8675 -188.625 210.1875 C-189.20623627 209.93190811 -189.78747253 209.67631622 -190.38632202 209.41297913 C-192.85067964 208.06396026 -194.47069398 206.5758939 -196.44384766 204.57983398 C-197.17785797 203.84244492 -197.91186829 203.10505585 -198.66812134 202.34532166 C-199.45053192 201.54945145 -200.2329425 200.75358124 -201.0390625 199.93359375 C-201.84991302 199.11754166 -202.66076355 198.30148956 -203.4961853 197.46070862 C-206.08557729 194.85350207 -208.66818687 192.23971012 -211.25 189.625 C-213.8398143 187.00759876 -216.43105732 184.39165351 -219.02523804 181.77857971 C-220.63950312 180.15202551 -222.25108806 178.52280632 -223.85977173 176.89073181 C-224.58747772 176.1564949 -225.31518372 175.422258 -226.06494141 174.66577148 C-226.70573639 174.01672348 -227.34653137 173.36767548 -228.00674438 172.69895935 C-229.56726397 171.09816367 -229.56726397 171.09816367 -231.625 170.1875 C-231.625 169.5275 -231.625 168.8675 -231.625 168.1875 C-232.16092773 167.97826904 -232.69685547 167.76903809 -233.24902344 167.5534668 C-236.5499078 165.65576355 -239.00307121 163.03474143 -241.640625 160.33203125 C-242.21528503 159.75216965 -242.78994507 159.17230804 -243.38201904 158.57487488 C-245.21784019 156.7212814 -247.04685415 154.8611614 -248.875 153 C-250.68965708 151.15751075 -252.50582553 149.31658013 -254.32513428 147.47868347 C-255.45453285 146.33726186 -256.58125477 145.19318243 -257.70465088 144.04585266 C-260.5220889 141.19350219 -263.40239995 138.47685977 -266.43798828 135.85693359 C-274.11220632 129.21766346 -281.21312057 121.94237962 -288.41601562 114.80151367 C-290.3026845 112.93646152 -292.19559197 111.07769888 -294.09472656 109.2253418 C-296.86186314 106.52553855 -299.60840615 103.80617203 -302.3515625 101.08203125 C-303.1923233 100.2691011 -304.03308411 99.45617096 -304.89932251 98.61860657 C-315.43231974 88.04883016 -320.33663376 75.39773745 -320.71875 60.54296875 C-320.02867938 44.89561739 -314.1728076 33.10360639 -302.8125 22.3125 C-294.25699323 15.30316915 -285.14334262 12.13192705 -274.24487305 11.87548828 C-273.47932665 11.85499798 -272.71378025 11.83450768 -271.92503548 11.81339645 C-269.26654496 11.74624829 -266.60797325 11.68850939 -263.94921875 11.6328125 C-262.98939276 11.61187656 -262.02956676 11.59094063 -261.04065514 11.56937027 C-225.55098836 10.82610681 -190.04180499 11.0377348 -154.54647815 11.05893064 C-146.38108619 11.06329222 -138.21570955 11.06015556 -130.05031854 11.0553025 C-122.0798565 11.05075833 -114.10940105 11.05012526 -106.13893813 11.05274117 C-101.41812539 11.0542884 -96.69732304 11.0545395 -91.976511 11.05120468 C-87.56911112 11.04830455 -83.16173985 11.05034076 -78.75434303 11.05609894 C-77.14798022 11.05741223 -75.54161496 11.05705698 -73.93525314 11.05483627 C-65.45087412 11.04419159 -57.06141476 11.19460408 -48.625 12.1875 C-48.295 11.5275 -47.965 10.8675 -47.625 10.1875 C-46.29166667 8.85416667 -44.95833333 7.52083333 -43.625 6.1875 C-43.068125 5.383125 -42.51125 4.57875 -41.9375 3.75 C-38.66248951 0.12093432 -35.01941546 -1.75805854 -30.625 -3.8125 C-29.88378906 -4.18246094 -29.14257812 -4.55242187 -28.37890625 -4.93359375 C-19.39889944 -8.58314121 -7.74040984 -5.50759931 0 0 Z M-29 17.125 C-31.90313186 20.80974428 -31.96155906 24.38967648 -31.91015625 28.8984375 C-31.46723476 32.45394424 -29.95325076 34.53588108 -27.625 37.1875 C-23.39581603 39.76217057 -19.44947554 39.83243857 -14.625 39.1875 C-11.15753246 37.71061568 -9.33827055 36.49769201 -7.5234375 33.1640625 C-5.99692969 29.27478607 -5.57377146 26.62660177 -6.0625 22.4375 C-7.9897348 18.42885162 -9.91142854 16.61560442 -13.625 14.1875 C-19.28861985 12.37996175 -24.37278938 13.35017028 -29 17.125 Z M-83.625 297.1875 C-86.73183074 301.49697489 -87.05551506 304.97037013 -86.265625 310.0703125 C-84.96320236 314.37466048 -81.9894024 316.39758282 -78.25 318.5625 C-73.40465314 319.71615401 -68.83653589 318.77068902 -64.625 316.1875 C-61.83290782 312.54017237 -60.625 309.14191822 -60.625 304.5625 C-61.93847538 300.1295206 -63.69035764 296.70757614 -67.375 293.8125 C-73.94575987 291.98728893 -78.49320143 292.65242219 -83.625 297.1875 Z " fill="#0C95E6" transform="translate(659.625,321.8125)"/>
<path d="M0 0 C28.71 0 57.42 0 87 0 C88.32 3.3 89.64 6.6 91 10 C92.9137048 12.81634026 92.9137048 12.81634026 95.0625 14.9375 C95.73410156 15.64777344 96.40570312 16.35804688 97.09765625 17.08984375 C98.03931641 18.03537109 98.03931641 18.03537109 99 19 C99.57621094 19.57878906 100.15242187 20.15757812 100.74609375 20.75390625 C101.15988281 21.16511719 101.57367187 21.57632812 102 22 C97.96152096 20.66322123 95.69323787 19.04689909 92.875 15.875 C92.21242188 15.15054687 91.54984375 14.42609375 90.8671875 13.6796875 C88.48281274 10.25776054 87.34271769 6.94475445 86 3 C58.67623768 1.69952726 31.34714496 1.89616439 4 2 C4.33 2.99 4.66 3.98 5 5 C5.66 5 6.32 5 7 5 C6.67 5.66 6.34 6.32 6 7 C3.95880212 5.38405168 1.95927063 3.7143618 0 2 C0 1.34 0 0.68 0 0 Z " fill="#1885C5" transform="translate(524,354)"/>
<path d="M0 0 C1.76953125 1.5546875 1.76953125 1.5546875 3.375 3.1875 C3.93574219 3.74695313 4.49648438 4.30640625 5.07421875 4.8828125 C11.17555874 11.47166876 13.72980859 18.94453206 13.59375 27.94140625 C12.9233566 34.82490994 10.54229657 40.72690449 6.375 46.1875 C6.375 42.95285933 7.00336196 41.67960452 8.375 38.8125 C11.66716418 30.78711757 11.75242045 21.42507743 8.53125 13.3125 C4.58463137 6.05925495 -0.90250291 1.06130952 -8.56640625 -2 C-17.97734366 -4.49996805 -27.13549684 -3.53224155 -35.625 1.1875 C-38.08150695 2.74992694 -40.32766063 4.38958223 -42.625 6.1875 C-41.1129851 1.65145531 -37.64240295 -0.6118407 -33.625 -2.8125 C-22.30480338 -8.28234291 -10.39905545 -7.33700088 0 0 Z " fill="#1884C3" transform="translate(659.625,321.8125)"/>
<path d="M0 0 C3.18259851 1.40509099 5.31348466 3.06921342 7.75878906 5.53173828 C8.83945648 6.61263229 8.83945648 6.61263229 9.94195557 7.71536255 C10.70876648 8.49249603 11.47557739 9.26962952 12.265625 10.0703125 C13.05902283 10.86654022 13.85242065 11.66276794 14.66986084 12.48312378 C17.20130703 15.02575948 19.72570803 17.57526348 22.25 20.125 C23.96568617 21.85071753 25.68182662 23.57598355 27.3984375 25.30078125 C31.60424248 29.52863032 35.80428507 33.76213869 40 38 C37 38 37 38 34.35205078 35.69262695 C33.29207865 34.63217843 32.24036489 33.56343589 31.1953125 32.48828125 C30.63431854 31.92304245 30.07332458 31.35780365 29.49533081 30.7754364 C27.69807053 28.96136631 25.91147587 27.1371854 24.125 25.3125 C22.92907867 24.10152851 21.73247171 22.89123372 20.53515625 21.68164062 C18.32138756 19.44338802 16.11177056 17.20120439 13.90673828 14.9543457 C8.52927411 9.37968601 8.52927411 9.37968601 2.6875 4.3125 C1.800625 3.549375 0.91375 2.78625 0 2 C0 1.34 0 0.68 0 0 Z " fill="#1682C1" transform="translate(415,557)"/>
<path d="M0 0 C2.49801323 2.20229827 4.13155868 4.69854959 5.85400391 7.53100586 C13.24087574 19.67656778 23.11742286 32.91984754 35 41 C34.505 41.99 34.505 41.99 34 43 C20.35231145 31.38494591 7.98231311 18.23706011 0 2 C0 1.34 0 0.68 0 0 Z " fill="#1B80BA" transform="translate(205,409)"/>
<path d="M0 0 C2.83240174 1.28751397 4.87238009 2.62829943 7.05273438 4.84155273 C7.62012329 5.4123204 8.18751221 5.98308807 8.77209473 6.57115173 C9.67381409 7.49306053 9.67381409 7.49306053 10.59375 8.43359375 C11.53655823 9.38420433 11.53655823 9.38420433 12.49841309 10.35401917 C14.50375706 12.37714907 16.50228716 14.40683668 18.5 16.4375 C20.49855497 18.46372578 22.49856635 20.48845746 24.50158691 22.51026917 C25.74649674 23.76737636 26.98872368 25.02714762 28.22790527 26.28990173 C30.5479193 28.63662021 32.75482195 30.81852358 35.41210938 32.78540039 C35.93611328 33.18621826 36.46011719 33.58703613 37 34 C37 34.66 37 35.32 37 36 C33.96167743 34.64052727 31.86255442 33.11126454 29.51660156 30.75952148 C28.85621887 30.10221542 28.19583618 29.44490936 27.51544189 28.76768494 C26.81425232 28.05930984 26.11306274 27.35093475 25.390625 26.62109375 C24.66381531 25.89382584 23.93700562 25.16655792 23.18817139 24.41725159 C21.6561141 22.88217714 20.12648406 21.3446769 18.59912109 19.80493164 C16.25021599 17.43771767 13.89335453 15.07865581 11.53515625 12.72070312 C10.04900526 11.22963886 8.56331205 9.73811816 7.078125 8.24609375 C6.3688385 7.53569443 5.659552 6.8252951 4.92877197 6.09336853 C4.28099792 5.43921463 3.63322388 4.78506073 2.96582031 4.11108398 C2.39164368 3.53309555 1.81746704 2.95510712 1.22589111 2.35960388 C0 1 0 1 0 0 Z " fill="#1784C4" transform="translate(434,496)"/>
<path d="M0 0 C2.65696068 0.15182632 4.44234524 0.47324024 6.41015625 2.33203125 C10.05131267 6.69504958 11.3146051 9.18379849 11.2109375 14.90625 C10.73700605 19.61045848 8.8254144 22.28975971 5.3125 25.3125 C1.47708882 27.26638872 -1.68489199 28.25685167 -6 28 C-9.5 26.5625 -9.5 26.5625 -12 25 C-10 24 -10 24 -6.75 24.5 C-2.21255057 25.10499326 1.06413862 24.86038283 5.25 23 C8.07648764 19.76972841 8.76755791 16.23326344 9 12 C7.77111635 7.31488107 6.70655982 5.52645634 2.8125 2.625 C1.884375 2.08875 0.95625 1.5525 0 1 C0 0.67 0 0.34 0 0 Z " fill="#1781BF" transform="translate(644,335)"/>
<path d="M0 0 C4.83848713 2.51761944 8.26898693 6.01174961 12.05078125 9.85546875 C12.70958786 10.51710526 13.36839447 11.17874176 14.04716492 11.86042786 C16.14037039 13.96478549 18.22649541 16.07600648 20.3125 18.1875 C21.73456369 19.61959988 23.15708479 21.05124572 24.58007812 22.48242188 C28.05870572 25.98304399 31.53100188 29.48983622 35 33 C32 33 32 33 29.53564453 30.8762207 C28.56030513 29.90040513 27.59321639 28.91629998 26.6328125 27.92578125 C26.11621063 27.40493454 25.59960876 26.88408783 25.06735229 26.34745789 C23.41273819 24.67603957 21.76881299 22.99453561 20.125 21.3125 C19.02543385 20.19788239 17.92518091 19.08394185 16.82421875 17.97070312 C14.7862203 15.90823211 12.7524242 13.84180056 10.72314453 11.77075195 C9.82450684 10.85640381 8.92586914 9.94205566 8 9 C7.12069824 8.09789795 6.24139648 7.1957959 5.33544922 6.26635742 C3.02004569 3.88237204 3.02004569 3.88237204 0 2 C0 1.34 0 0.68 0 0 Z " fill="#1783C2" transform="translate(317,527)"/>
<path d="M0 0 C4.00517396 1.60373148 6.6771098 4.42113986 9.640625 7.4453125 C10.16767029 7.97518768 10.69471558 8.50506287 11.23773193 9.05099487 C12.91325675 10.73767825 14.58167722 12.43119564 16.25 14.125 C17.38755851 15.27259388 18.52557436 16.41973461 19.6640625 17.56640625 C22.44803465 20.37238137 25.2256576 23.18450464 28 26 C25 26 25 26 22.6875 24.01220703 C21.800625 23.10325684 20.91375 22.19430664 20 21.2578125 C19.52304687 20.77424286 19.04609375 20.29067322 18.5546875 19.79244995 C17.02921767 18.24355023 15.51423746 16.68487596 14 15.125 C12.48411038 13.57400253 10.96609852 12.02517012 9.4453125 10.47897339 C8.06342488 9.07237169 6.6878063 7.6596193 5.3125 6.24658203 C3.01608453 3.87933687 3.01608453 3.87933687 0 2 C0 1.34 0 0.68 0 0 Z " fill="#1683C3" transform="translate(384,413)"/>
<path d="M0 0 C3.76603869 1.56282982 6.13639151 3.9063475 8.984375 6.7890625 C9.44483215 7.25234955 9.90528931 7.7156366 10.37969971 8.19296265 C11.84125078 9.66565898 13.29567168 11.14517403 14.75 12.625 C15.74302611 13.62806322 16.73651089 14.63067257 17.73046875 15.6328125 C20.15897941 18.08330835 22.58114675 20.5399667 25 23 C22 23 22 23 19.4765625 20.76953125 C18.51833693 19.79134265 17.56808791 18.80529119 16.625 17.8125 C15.92117188 17.08836914 15.92117188 17.08836914 15.203125 16.34960938 C14.26062248 15.37976908 13.32043058 14.40767792 12.38256836 13.43334961 C9.28069031 10.21754067 6.21797313 7.05842355 2.6875 4.3125 C1.800625 3.549375 0.91375 2.78625 0 2 C0 1.34 0 0.68 0 0 Z " fill="#1780BE" transform="translate(535,365)"/>
<path d="M0 0 C0.66 0.33 1.32 0.66 2 1 C0.948125 1.70125 -0.10375 2.4025 -1.1875 3.125 C-6.75735168 7.11954009 -10.1549387 11.71091712 -13 18 C-14 15 -14 15 -13.06640625 12.94921875 C-9.39173759 7.42289887 -5.57241042 3.60650928 0 0 Z " fill="#0F9DF1" transform="translate(571,601)"/>
<path d="M0 0 C0.99 0.33 1.98 0.66 3 1 C-0.66666667 4.66666667 -4.33333333 8.33333333 -8 12 C-7.55396127 6.94489444 -5.35299176 4.59833262 -2 1 C-1.34 0.67 -0.68 0.34 0 0 Z " fill="#1391DB" transform="translate(226,256)"/>
<path d="M0 0 C3.45201639 1.47721422 5.64961936 3.43794001 8.25 6.125 C8.95640625 6.84945312 9.6628125 7.57390625 10.390625 8.3203125 C11.18726563 9.15175781 11.18726563 9.15175781 12 10 C9 10 9 10 7.28125 8.50390625 C6.6934375 7.86324219 6.105625 7.22257813 5.5 6.5625 C3.21180313 4.07860209 2.27359608 3.09119869 -1 2 C-0.67 1.34 -0.34 0.68 0 0 Z " fill="#129DF0" transform="translate(697,524)"/>
<path d="M0 0 C3.19199167 2.41556126 5.74716687 4.68003538 8 8 C7.67 8.66 7.34 9.32 7 10 C1.21538462 5.69230769 1.21538462 5.69230769 0.125 2.1875 C0.08375 1.465625 0.0425 0.74375 0 0 Z " fill="#178ACC" transform="translate(751,574)"/>
<path d="M0 0 C1.32 0.33 2.64 0.66 4 1 C1.03 3.475 1.03 3.475 -2 6 C-2.33 5.34 -2.66 4.68 -3 4 C-2.01 2.68 -1.02 1.36 0 0 Z " fill="#1193E1" transform="translate(250,232)"/>
<path d="M0 0 C3.3 0.33 6.6 0.66 10 1 C10 1.99 10 2.98 10 4 C3.375 3.375 3.375 3.375 0 0 Z " fill="#1987C7" transform="translate(632,359)"/>
<path d="M0 0 C1.74627478 2.61941217 2.38722388 4.03824877 3 7 C1.5 5.75 1.5 5.75 0 4 C0 2.68 0 1.36 0 0 Z " fill="#1B9AE5" transform="translate(730,601)"/>
<path d="M0 0 C1.65 0 3.3 0 5 0 C5 0.33 5 0.66 5 1 C3.35 1 1.7 1 0 1 C0 0.67 0 0.34 0 0 Z " fill="#1C97E1" transform="translate(641,381)"/>
<path d="M0 0 C0.99 0.33 1.98 0.66 3 1 C2.01 1 1.02 1 0 1 C0 0.67 0 0.34 0 0 Z " fill="#1C99E2" transform="translate(416,482)"/>
<path d="M0 0 C3 1 3 1 3 1 Z " fill="#1E92D9" transform="translate(671,775)"/>
<path d="" fill="#1B9BE6" transform="translate(0,0)"/>
<path d="M0 0 C0.66 0.66 1.32 1.32 2 2 C1.34 2 0.68 2 0 2 C0 1.34 0 0.68 0 0 Z " fill="#1C99E6" transform="translate(624,482)"/>
<path d="M0 0 C3 1 3 1 3 1 Z " fill="#1B98E2" transform="translate(635,381)"/>
<path d="" fill="#1F95DA" transform="translate(0,0)"/>
<path d="M0 0 C0.99 0.495 0.99 0.495 2 1 C1.01 1.495 1.01 1.495 0 2 C0 1.34 0 0.68 0 0 Z " fill="#1F95DB" transform="translate(201,288)"/>
<path d="M0 0 C3 1 3 1 3 1 Z " fill="#1E9AE0" transform="translate(296,208)"/>
<path d="M0 0 C2 1 2 1 2 1 Z " fill="#2193D8" transform="translate(676,775)"/>
<path d="M0 0 C2 1 2 1 2 1 Z " fill="#228FD5" transform="translate(240,775)"/>
<path d="M0 0 C2 1 2 1 2 1 Z " fill="#2193D7" transform="translate(684,773)"/>
<path d="M0 0 C2 1 2 1 2 1 Z " fill="#2092D4" transform="translate(220,767)"/>
<path d="M0 0 C2 1 2 1 2 1 Z " fill="#1B99E5" transform="translate(580,746)"/>
<path d="M0 0 C2 1 2 1 2 1 Z " fill="#1B9CE8" transform="translate(556,746)"/>
<path d="M0 0 C2 1 2 1 2 1 Z " fill="#1B9CE3" transform="translate(649,744)"/>
<path d="" fill="#2890CE" transform="translate(0,0)"/>
<path d="" fill="#1B9DE6" transform="translate(0,0)"/>
<path d="M0 0 C2 1 2 1 2 1 Z " fill="#1A9CE8" transform="translate(324,721)"/>
<path d="M0 0 C2 1 2 1 2 1 Z " fill="#1C9AE4" transform="translate(345,720)"/>
<path d="M0 0 C2 1 2 1 2 1 Z " fill="#1C9AE2" transform="translate(304,720)"/>
<path d="" fill="#2292D4" transform="translate(0,0)"/>
<path d="" fill="#1B9AE8" transform="translate(0,0)"/>
<path d="M0 0 C2 1 2 1 2 1 Z " fill="#1E9BE5" transform="translate(577,595)"/>
<path d="" fill="#1B98E3" transform="translate(0,0)"/>
<path d="M0 0 C2 1 2 1 2 1 Z " fill="#1F9AE5" transform="translate(563,558)"/>
<path d="M0 0 C2 1 2 1 2 1 Z " fill="#1E9CE6" transform="translate(547,558)"/>
<path d="M0 0 C2 1 2 1 2 1 Z " fill="#1D9AE5" transform="translate(515,558)"/>
<path d="M0 0 C2 1 2 1 2 1 Z " fill="#209AE2" transform="translate(681,539)"/>
<path d="" fill="#2199E0" transform="translate(0,0)"/>
<path d="M0 0 C2 1 2 1 2 1 Z " fill="#1D98E1" transform="translate(677,535)"/>
<path d="M0 0 C2 1 2 1 2 1 Z " fill="#1D98E3" transform="translate(672,534)"/>
<path d="M0 0 C2 1 2 1 2 1 Z " fill="#1D9BE2" transform="translate(657,515)"/>
<path d="M0 0 C2 1 2 1 2 1 Z " fill="#1B98E3" transform="translate(620,479)"/>
<path d="" fill="#1B9AE7" transform="translate(0,0)"/>
<path d="" fill="#1998E5" transform="translate(0,0)"/>
<path d="" fill="#2195D8" transform="translate(0,0)"/>
<path d="" fill="#2395D8" transform="translate(0,0)"/>
<path d="" fill="#2195DD" transform="translate(0,0)"/>
<path d="" fill="#2396DB" transform="translate(0,0)"/>
<path d="M0 0 C2 1 2 1 2 1 Z " fill="#179BE9" transform="translate(698,261)"/>
<path d="M0 0 C2 1 2 1 2 1 Z " fill="#1B9BE8" transform="translate(306,260)"/>
<path d="M0 0 C2 1 2 1 2 1 Z " fill="#1F96DA" transform="translate(247,232)"/>
<path d="M0 0 C2 1 2 1 2 1 Z " fill="#1E97DE" transform="translate(734,216)"/>
<path d="M0 0 C2 1 2 1 2 1 Z " fill="#1E99DD" transform="translate(274,216)"/>
<path d="" fill="#454E53" transform="translate(0,0)"/>
<path d="" fill="#4C5152" transform="translate(0,0)"/>
<path d="" fill="#555656" transform="translate(0,0)"/>
<path d="" fill="#4C5152" transform="translate(0,0)"/>
<path d="" fill="#575657" transform="translate(0,0)"/>
<path d="" fill="#455156" transform="translate(0,0)"/>
<path d="" fill="#425158" transform="translate(0,0)"/>
<path d="" fill="#425158" transform="translate(0,0)"/>
<path d="" fill="#5A5B5A" transform="translate(0,0)"/>
<path d="" fill="#42545D" transform="translate(0,0)"/>
<path d="" fill="#515454" transform="translate(0,0)"/>
<path d="" fill="#4D5153" transform="translate(0,0)"/>
<path d="" fill="#405460" transform="translate(0,0)"/>
<path d="" fill="#485054" transform="translate(0,0)"/>
<path d="" fill="#505657" transform="translate(0,0)"/>
<path d="" fill="#3C6177" transform="translate(0,0)"/>
<path d="" fill="#565B5D" transform="translate(0,0)"/>
<path d="" fill="#238ED0" transform="translate(0,0)"/>
<path d="" fill="#2293D8" transform="translate(0,0)"/>
<path d="" fill="#1C94DB" transform="translate(0,0)"/>
<path d="" fill="#2491D5" transform="translate(0,0)"/>
<path d="" fill="#2090D3" transform="translate(0,0)"/>
<path d="" fill="#2693D5" transform="translate(0,0)"/>
<path d="" fill="#2591D0" transform="translate(0,0)"/>
<path d="" fill="#1F94DA" transform="translate(0,0)"/>
<path d="" fill="#2394D5" transform="translate(0,0)"/>
<path d="" fill="#218FD4" transform="translate(0,0)"/>
<path d="" fill="#2093D8" transform="translate(0,0)"/>
<path d="" fill="#1B9BE7" transform="translate(0,0)"/>
<path d="" fill="#2B8FCD" transform="translate(0,0)"/>
<path d="" fill="#2A8FCA" transform="translate(0,0)"/>
<path d="" fill="#298FCA" transform="translate(0,0)"/>
<path d="" fill="#2295D6" transform="translate(0,0)"/>
<path d="" fill="#2890CE" transform="translate(0,0)"/>
<path d="" fill="#2B90CA" transform="translate(0,0)"/>
<path d="" fill="#2A8FCD" transform="translate(0,0)"/>
<path d="" fill="#1999E3" transform="translate(0,0)"/>
<path d="" fill="#298CC9" transform="translate(0,0)"/>
<path d="" fill="#2B8FCF" transform="translate(0,0)"/>
<path d="" fill="#199AE7" transform="translate(0,0)"/>
<path d="" fill="#199DE7" transform="translate(0,0)"/>
<path d="" fill="#1A9BE6" transform="translate(0,0)"/>
<path d="" fill="#1A9BE6" transform="translate(0,0)"/>
<path d="" fill="#1A9BE5" transform="translate(0,0)"/>
<path d="" fill="#1A9CE8" transform="translate(0,0)"/>
<path d="" fill="#1A9CE7" transform="translate(0,0)"/>
<path d="" fill="#199BE6" transform="translate(0,0)"/>
<path d="" fill="#1A9CE7" transform="translate(0,0)"/>
<path d="" fill="#1B9CE6" transform="translate(0,0)"/>
<path d="" fill="#199DE9" transform="translate(0,0)"/>
<path d="" fill="#1D9DE9" transform="translate(0,0)"/>
<path d="" fill="#1A9CE9" transform="translate(0,0)"/>
<path d="" fill="#1B9DE7" transform="translate(0,0)"/>
<path d="" fill="#1A9CE8" transform="translate(0,0)"/>
<path d="" fill="#1B9CE6" transform="translate(0,0)"/>
<path d="" fill="#1B9BE6" transform="translate(0,0)"/>
<path d="" fill="#1A9BE6" transform="translate(0,0)"/>
<path d="" fill="#1A9BE7" transform="translate(0,0)"/>
<path d="" fill="#1B9CE7" transform="translate(0,0)"/>
<path d="" fill="#1C9FE9" transform="translate(0,0)"/>
<path d="" fill="#1D9BE3" transform="translate(0,0)"/>
<path d="" fill="#1C9AE3" transform="translate(0,0)"/>
<path d="" fill="#1D9AE1" transform="translate(0,0)"/>
<path d="" fill="#1C99DF" transform="translate(0,0)"/>
<path d="" fill="#1D95DF" transform="translate(0,0)"/>
<path d="" fill="#229ADF" transform="translate(0,0)"/>
<path d="" fill="#1C9BE5" transform="translate(0,0)"/>
<path d="" fill="#2297DD" transform="translate(0,0)"/>
<path d="" fill="#2499DE" transform="translate(0,0)"/>
<path d="" fill="#2497DA" transform="translate(0,0)"/>
<path d="" fill="#1A99E5" transform="translate(0,0)"/>
<path d="" fill="#595E5F" transform="translate(0,0)"/>
<path d="" fill="#1E9BE6" transform="translate(0,0)"/>
<path d="" fill="#1F94D9" transform="translate(0,0)"/>
<path d="" fill="#1C9CE8" transform="translate(0,0)"/>
<path d="" fill="#1D9AE5" transform="translate(0,0)"/>
<path d="" fill="#1F99E1" transform="translate(0,0)"/>
<path d="" fill="#1E9DEA" transform="translate(0,0)"/>
<path d="" fill="#1D9BE7" transform="translate(0,0)"/>
<path d="" fill="#1B94DF" transform="translate(0,0)"/>
<path d="" fill="#1C9EE6" transform="translate(0,0)"/>
<path d="" fill="#219BE5" transform="translate(0,0)"/>
<path d="" fill="#1F98DF" transform="translate(0,0)"/>
<path d="" fill="#1E9CE3" transform="translate(0,0)"/>
<path d="" fill="#1B9BE6" transform="translate(0,0)"/>
<path d="" fill="#1E9AE5" transform="translate(0,0)"/>
<path d="" fill="#1996E4" transform="translate(0,0)"/>
<path d="" fill="#1B9AE6" transform="translate(0,0)"/>
<path d="" fill="#1A98E8" transform="translate(0,0)"/>
<path d="" fill="#1F93D9" transform="translate(0,0)"/>
<path d="" fill="#1C9CE6" transform="translate(0,0)"/>
<path d="" fill="#1F9CE5" transform="translate(0,0)"/>
<path d="" fill="#209AE4" transform="translate(0,0)"/>
<path d="" fill="#1F93D5" transform="translate(0,0)"/>
<path d="" fill="#1E9DE9" transform="translate(0,0)"/>
<path d="" fill="#209DE7" transform="translate(0,0)"/>
<path d="" fill="#1C97DF" transform="translate(0,0)"/>
<path d="" fill="#1C9DE9" transform="translate(0,0)"/>
<path d="" fill="#2194D8" transform="translate(0,0)"/>
<path d="" fill="#1D9AE3" transform="translate(0,0)"/>
<path d="" fill="#1F9AE2" transform="translate(0,0)"/>
<path d="" fill="#1C9CE5" transform="translate(0,0)"/>
<path d="" fill="#1E9DE7" transform="translate(0,0)"/>
<path d="" fill="#2196DC" transform="translate(0,0)"/>
<path d="" fill="#229AE2" transform="translate(0,0)"/>
<path d="" fill="#1F9EE7" transform="translate(0,0)"/>
<path d="" fill="#1B97E2" transform="translate(0,0)"/>
<path d="" fill="#2392D4" transform="translate(0,0)"/>
<path d="" fill="#1C9BE8" transform="translate(0,0)"/>
<path d="" fill="#1E9AE5" transform="translate(0,0)"/>
<path d="" fill="#1E97E1" transform="translate(0,0)"/>
<path d="" fill="#1F99E5" transform="translate(0,0)"/>
<path d="" fill="#2690D1" transform="translate(0,0)"/>
<path d="" fill="#1F96E1" transform="translate(0,0)"/>
<path d="" fill="#2494D3" transform="translate(0,0)"/>
<path d="" fill="#1B99E5" transform="translate(0,0)"/>
<path d="" fill="#1D98E7" transform="translate(0,0)"/>
<path d="" fill="#1B98E4" transform="translate(0,0)"/>
<path d="" fill="#219BE4" transform="translate(0,0)"/>
<path d="" fill="#1F95DC" transform="translate(0,0)"/>
<path d="" fill="#2194DB" transform="translate(0,0)"/>
<path d="" fill="#1E99E4" transform="translate(0,0)"/>
<path d="" fill="#1C99E4" transform="translate(0,0)"/>
<path d="" fill="#189AE5" transform="translate(0,0)"/>
<path d="" fill="#2298D9" transform="translate(0,0)"/>
<path d="" fill="#1D9CE7" transform="translate(0,0)"/>
<path d="" fill="#1699E9" transform="translate(0,0)"/>
<path d="" fill="#2294DD" transform="translate(0,0)"/>
<path d="" fill="#1D9CE6" transform="translate(0,0)"/>
<path d="" fill="#199DE9" transform="translate(0,0)"/>
<path d="" fill="#1797E6" transform="translate(0,0)"/>
<path d="" fill="#1C9AE7" transform="translate(0,0)"/>
<path d="" fill="#1F9BE4" transform="translate(0,0)"/>
<path d="" fill="#1C9BE4" transform="translate(0,0)"/>
<path d="" fill="#2099E2" transform="translate(0,0)"/>
<path d="" fill="#1A9BE5" transform="translate(0,0)"/>
<path d="" fill="#1E9CE2" transform="translate(0,0)"/>
<path d="" fill="#2197DD" transform="translate(0,0)"/>
<path d="" fill="#2099E3" transform="translate(0,0)"/>
<path d="" fill="#1E9DE8" transform="translate(0,0)"/>
<path d="" fill="#1D9CE8" transform="translate(0,0)"/>
<path d="" fill="#1D9CE7" transform="translate(0,0)"/>
<path d="" fill="#1E98E0" transform="translate(0,0)"/>
<path d="" fill="#1D99E2" transform="translate(0,0)"/>
<path d="" fill="#1E99E4" transform="translate(0,0)"/>
<path d="" fill="#1E9BE8" transform="translate(0,0)"/>
<path d="" fill="#1F9BE6" transform="translate(0,0)"/>
<path d="" fill="#1F9AE5" transform="translate(0,0)"/>
<path d="" fill="#1E9CE7" transform="translate(0,0)"/>
<path d="" fill="#1D99E6" transform="translate(0,0)"/>
<path d="" fill="#209AE1" transform="translate(0,0)"/>
<path d="" fill="#1E99E2" transform="translate(0,0)"/>
<path d="" fill="#1C98E2" transform="translate(0,0)"/>
<path d="" fill="#1D99E4" transform="translate(0,0)"/>
<path d="" fill="#1F99E3" transform="translate(0,0)"/>
<path d="" fill="#1B99E2" transform="translate(0,0)"/>
<path d="" fill="#1C99DF" transform="translate(0,0)"/>
<path d="" fill="#1F98DD" transform="translate(0,0)"/>
<path d="" fill="#1C99E2" transform="translate(0,0)"/>
<path d="" fill="#1B97E2" transform="translate(0,0)"/>
<path d="" fill="#1F9BE1" transform="translate(0,0)"/>
<path d="" fill="#1B96E1" transform="translate(0,0)"/>
<path d="" fill="#2096DE" transform="translate(0,0)"/>
<path d="" fill="#2098E1" transform="translate(0,0)"/>
<path d="" fill="#1F9CE3" transform="translate(0,0)"/>
<path d="" fill="#1B9AE2" transform="translate(0,0)"/>
<path d="" fill="#1F97E1" transform="translate(0,0)"/>
<path d="" fill="#1D9BE3" transform="translate(0,0)"/>
<path d="" fill="#1C9BE5" transform="translate(0,0)"/>
<path d="" fill="#229AE0" transform="translate(0,0)"/>
<path d="" fill="#1D96E1" transform="translate(0,0)"/>
<path d="" fill="#1897E4" transform="translate(0,0)"/>
<path d="" fill="#1999E2" transform="translate(0,0)"/>
<path d="" fill="#1D9BE4" transform="translate(0,0)"/>
<path d="" fill="#1D9CE4" transform="translate(0,0)"/>
<path d="" fill="#1C9AE3" transform="translate(0,0)"/>
<path d="" fill="#1E96E6" transform="translate(0,0)"/>
<path d="" fill="#1E97E3" transform="translate(0,0)"/>
<path d="" fill="#1A98E4" transform="translate(0,0)"/>
<path d="" fill="#1A96E1" transform="translate(0,0)"/>
<path d="" fill="#1B99E4" transform="translate(0,0)"/>
<path d="" fill="#1C99E3" transform="translate(0,0)"/>
<path d="" fill="#1F98DF" transform="translate(0,0)"/>
<path d="" fill="#1D99E5" transform="translate(0,0)"/>
<path d="" fill="#1B99E4" transform="translate(0,0)"/>
<path d="" fill="#199AE6" transform="translate(0,0)"/>
<path d="" fill="#476879" transform="translate(0,0)"/>
<path d="" fill="#1D98E4" transform="translate(0,0)"/>
<path d="" fill="#1F9AE5" transform="translate(0,0)"/>
<path d="" fill="#1A99E8" transform="translate(0,0)"/>
<path d="" fill="#219BE1" transform="translate(0,0)"/>
<path d="" fill="#2294D9" transform="translate(0,0)"/>
<path d="" fill="#2494D8" transform="translate(0,0)"/>
<path d="" fill="#1C97E1" transform="translate(0,0)"/>
<path d="" fill="#1B99E3" transform="translate(0,0)"/>
<path d="" fill="#1A98E4" transform="translate(0,0)"/>
<path d="" fill="#1D99E6" transform="translate(0,0)"/>
<path d="" fill="#1F9BE6" transform="translate(0,0)"/>
<path d="" fill="#1895E1" transform="translate(0,0)"/>
<path d="" fill="#2496D7" transform="translate(0,0)"/>
<path d="" fill="#565F64" transform="translate(0,0)"/>
<path d="" fill="#1B9AE5" transform="translate(0,0)"/>
<path d="" fill="#1C99E6" transform="translate(0,0)"/>
<path d="" fill="#2099E3" transform="translate(0,0)"/>
<path d="" fill="#1E9AE5" transform="translate(0,0)"/>
<path d="" fill="#2195DA" transform="translate(0,0)"/>
<path d="" fill="#1996E4" transform="translate(0,0)"/>
<path d="" fill="#1B9AE6" transform="translate(0,0)"/>
<path d="" fill="#1797E4" transform="translate(0,0)"/>
<path d="" fill="#1B9AE5" transform="translate(0,0)"/>
<path d="" fill="#1B98E2" transform="translate(0,0)"/>
<path d="" fill="#1794E1" transform="translate(0,0)"/>
<path d="" fill="#1B9BE4" transform="translate(0,0)"/>
<path d="" fill="#2595D6" transform="translate(0,0)"/>
<path d="" fill="#2296D9" transform="translate(0,0)"/>
<path d="" fill="#1B9AE5" transform="translate(0,0)"/>
<path d="" fill="#2195D7" transform="translate(0,0)"/>
<path d="" fill="#2395D9" transform="translate(0,0)"/>
<path d="" fill="#1B95E0" transform="translate(0,0)"/>
<path d="" fill="#1F94DD" transform="translate(0,0)"/>
<path d="" fill="#1D9CE5" transform="translate(0,0)"/>
<path d="" fill="#2594D8" transform="translate(0,0)"/>
<path d="" fill="#1B99E5" transform="translate(0,0)"/>
<path d="" fill="#1F9BE6" transform="translate(0,0)"/>
<path d="" fill="#2192D6" transform="translate(0,0)"/>
<path d="" fill="#1A9AE7" transform="translate(0,0)"/>
<path d="" fill="#1C9AE3" transform="translate(0,0)"/>
<path d="" fill="#1D98E2" transform="translate(0,0)"/>
<path d="" fill="#1F9AE1" transform="translate(0,0)"/>
<path d="" fill="#1F94D9" transform="translate(0,0)"/>
<path d="" fill="#1B98E4" transform="translate(0,0)"/>
<path d="" fill="#2095DC" transform="translate(0,0)"/>
<path d="" fill="#1E9BE4" transform="translate(0,0)"/>
<path d="" fill="#2393D8" transform="translate(0,0)"/>
<path d="" fill="#2293D8" transform="translate(0,0)"/>
<path d="" fill="#1A96E1" transform="translate(0,0)"/>
<path d="" fill="#179DEB" transform="translate(0,0)"/>
<path d="" fill="#2396D9" transform="translate(0,0)"/>
<path d="" fill="#1B98E0" transform="translate(0,0)"/>
<path d="" fill="#1F9BE2" transform="translate(0,0)"/>
<path d="" fill="#1A98E3" transform="translate(0,0)"/>
<path d="" fill="#1C97E2" transform="translate(0,0)"/>
<path d="" fill="#1D9DE8" transform="translate(0,0)"/>
<path d="" fill="#189CE8" transform="translate(0,0)"/>
<path d="" fill="#1B9BE6" transform="translate(0,0)"/>
<path d="" fill="#199BE8" transform="translate(0,0)"/>
<path d="" fill="#2394D8" transform="translate(0,0)"/>
<path d="" fill="#1F97DF" transform="translate(0,0)"/>
<path d="" fill="#199DEB" transform="translate(0,0)"/>
<path d="" fill="#1C9CE8" transform="translate(0,0)"/>
<path d="" fill="#1B9BE8" transform="translate(0,0)"/>
<path d="" fill="#1B9CE8" transform="translate(0,0)"/>
<path d="" fill="#1C9BE4" transform="translate(0,0)"/>
<path d="" fill="#1A9BEB" transform="translate(0,0)"/>
<path d="" fill="#1F97DF" transform="translate(0,0)"/>
<path d="" fill="#1D9AE6" transform="translate(0,0)"/>
<path d="" fill="#1C9AE2" transform="translate(0,0)"/>
<path d="" fill="#1D9CE8" transform="translate(0,0)"/>
<path d="" fill="#595F60" transform="translate(0,0)"/>
<path d="" fill="#487189" transform="translate(0,0)"/>
<path d="" fill="#199CEA" transform="translate(0,0)"/>
<path d="" fill="#189BE9" transform="translate(0,0)"/>
<path d="" fill="#1C9AE8" transform="translate(0,0)"/>
<path d="" fill="#1A9AE4" transform="translate(0,0)"/>
<path d="" fill="#1F99E3" transform="translate(0,0)"/>
<path d="" fill="#1D98E3" transform="translate(0,0)"/>
<path d="" fill="#199CEA" transform="translate(0,0)"/>
<path d="" fill="#1A97E4" transform="translate(0,0)"/>
<path d="" fill="#1D9AE6" transform="translate(0,0)"/>
<path d="" fill="#1798E6" transform="translate(0,0)"/>
<path d="" fill="#1B99E7" transform="translate(0,0)"/>
<path d="" fill="#1997E3" transform="translate(0,0)"/>
<path d="" fill="#1D99E5" transform="translate(0,0)"/>
<path d="" fill="#1C9AE6" transform="translate(0,0)"/>
<path d="" fill="#1C9BE7" transform="translate(0,0)"/>
<path d="" fill="#1E9CE4" transform="translate(0,0)"/>
<path d="" fill="#2098E1" transform="translate(0,0)"/>
<path d="" fill="#189AEA" transform="translate(0,0)"/>
<path d="" fill="#1B97E5" transform="translate(0,0)"/>
<path d="" fill="#2296DB" transform="translate(0,0)"/>
<path d="" fill="#1C9AE6" transform="translate(0,0)"/>
<path d="" fill="#1C9CE7" transform="translate(0,0)"/>
<path d="" fill="#1998E5" transform="translate(0,0)"/>
<path d="" fill="#1B99E4" transform="translate(0,0)"/>
<path d="" fill="#2493D6" transform="translate(0,0)"/>
<path d="" fill="#2295D9" transform="translate(0,0)"/>
<path d="" fill="#1D99E6" transform="translate(0,0)"/>
<path d="" fill="#2097DB" transform="translate(0,0)"/>
<path d="" fill="#1A99E7" transform="translate(0,0)"/>
<path d="" fill="#1B98E5" transform="translate(0,0)"/>
<path d="" fill="#1899E7" transform="translate(0,0)"/>
<path d="" fill="#1C98E5" transform="translate(0,0)"/>
<path d="" fill="#1E9AE5" transform="translate(0,0)"/>
<path d="" fill="#1C9AE7" transform="translate(0,0)"/>
<path d="" fill="#1B9BE5" transform="translate(0,0)"/>
<path d="" fill="#2296DA" transform="translate(0,0)"/>
<path d="" fill="#199BE6" transform="translate(0,0)"/>
<path d="" fill="#1C9CE6" transform="translate(0,0)"/>
<path d="" fill="#1D9DE6" transform="translate(0,0)"/>
<path d="" fill="#1E9CE9" transform="translate(0,0)"/>
<path d="" fill="#1E9BE8" transform="translate(0,0)"/>
<path d="" fill="#2595D9" transform="translate(0,0)"/>
<path d="" fill="#2195DB" transform="translate(0,0)"/>
<path d="" fill="#2096DC" transform="translate(0,0)"/>
<path d="" fill="#1E96DB" transform="translate(0,0)"/>
<path d="" fill="#1D96DD" transform="translate(0,0)"/>
<path d="" fill="#2299E0" transform="translate(0,0)"/>
<path d="" fill="#2195DC" transform="translate(0,0)"/>
<path d="" fill="#2398DB" transform="translate(0,0)"/>
<path d="" fill="#2097DC" transform="translate(0,0)"/>
<path d="" fill="#2095DD" transform="translate(0,0)"/>
<path d="" fill="#1D97DD" transform="translate(0,0)"/>
<path d="" fill="#1D94DD" transform="translate(0,0)"/>
<path d="" fill="#1D97DB" transform="translate(0,0)"/>
<path d="" fill="#2294D8" transform="translate(0,0)"/>
<path d="" fill="#2293D8" transform="translate(0,0)"/>
<path d="" fill="#595B5B" transform="translate(0,0)"/>
<path d="" fill="#57595C" transform="translate(0,0)"/>
<path d="" fill="#545E60" transform="translate(0,0)"/>
<path d="" fill="#54636B" transform="translate(0,0)"/>
<path d="" fill="#5A5C5C" transform="translate(0,0)"/>
<path d="" fill="#555F66" transform="translate(0,0)"/>
<path d="" fill="#595B5D" transform="translate(0,0)"/>
<path d="" fill="#565C5F" transform="translate(0,0)"/>
<path d="" fill="#565D62" transform="translate(0,0)"/>
<path d="" fill="#585F64" transform="translate(0,0)"/>
</svg>
